<svg width="35" height="36" viewBox="0 0 35 36" fill="none" xmlns="http://www.w3.org/2000/svg">
<path d="M27.9998 4.72501H6.99984C5.71067 4.72501 4.6665 5.76917 4.6665 7.05834V28.0583C4.6665 29.3475 5.71067 30.3917 6.99984 30.3917H18.6665V19.8917H15.1665V16.3917H18.6665V14.5122C18.6665 10.9538 20.4002 9.39167 23.3577 9.39167C24.774 9.39167 25.523 9.49667 25.8777 9.54451V12.8917H23.8605C22.6052 12.8917 22.1665 13.5543 22.1665 14.896V16.3917H25.8462L25.3468 19.8917H22.1665V30.3917H27.9998C29.289 30.3917 30.3332 29.3475 30.3332 28.0583V7.05834C30.3332 5.76917 29.2878 4.72501 27.9998 4.72501Z" fill="white"/>
</svg>
