<svg width="35" height="36" viewBox="0 0 35 36" fill="none" xmlns="http://www.w3.org/2000/svg">
<path d="M11.6667 4.43335C7.64021 4.43335 4.375 7.69856 4.375 11.725V23.3917C4.375 27.4181 7.64021 30.6833 11.6667 30.6833H23.3333C27.3598 30.6833 30.625 27.4181 30.625 23.3917V11.725C30.625 7.69856 27.3598 4.43335 23.3333 4.43335H11.6667ZM26.25 7.35002C27.055 7.35002 27.7083 8.00335 27.7083 8.80835C27.7083 9.61335 27.055 10.2667 26.25 10.2667C25.445 10.2667 24.7917 9.61335 24.7917 8.80835C24.7917 8.00335 25.445 7.35002 26.25 7.35002ZM17.5 10.2667C21.5265 10.2667 24.7917 13.5319 24.7917 17.5583C24.7917 21.5848 21.5265 24.85 17.5 24.85C13.4735 24.85 10.2083 21.5848 10.2083 17.5583C10.2083 13.5319 13.4735 10.2667 17.5 10.2667ZM17.5 13.1833C16.3397 13.1833 15.2269 13.6443 14.4064 14.4648C13.5859 15.2852 13.125 16.398 13.125 17.5583C13.125 18.7187 13.5859 19.8315 14.4064 20.6519C15.2269 21.4724 16.3397 21.9333 17.5 21.9333C18.6603 21.9333 19.7731 21.4724 20.5936 20.6519C21.4141 19.8315 21.875 18.7187 21.875 17.5583C21.875 16.398 21.4141 15.2852 20.5936 14.4648C19.7731 13.6443 18.6603 13.1833 17.5 13.1833Z" fill="white"/>
</svg>
