<svg width="35" height="36" viewBox="0 0 35 36" fill="none" xmlns="http://www.w3.org/2000/svg">
<path d="M27.7083 4.43335H7.29167C5.68021 4.43335 4.375 5.73856 4.375 7.35002V27.7667C4.375 29.3781 5.68021 30.6833 7.29167 30.6833H27.7083C29.3198 30.6833 30.625 29.3781 30.625 27.7667V7.35002C30.625 5.73856 29.3198 4.43335 27.7083 4.43335ZM11.2846 24.85C10.2681 24.85 9.44417 24.0261 9.44417 23.0096V16.4806C9.44562 15.4656 10.2696 14.6417 11.2846 14.6417C12.301 14.6417 13.125 15.4656 13.125 16.4821V23.0111C13.125 24.0261 12.301 24.85 11.2846 24.85ZM11.2204 12.7706C10.096 12.7706 9.345 12.0211 9.345 11.0206C9.345 10.0202 10.0946 9.27064 11.3444 9.27064C12.4688 9.27064 13.2198 10.0202 13.2198 11.0206C13.2198 12.0211 12.4702 12.7706 11.2204 12.7706ZM24.4694 24.85C23.4865 24.85 22.6887 24.0523 22.6887 23.0694V19.2704C22.6887 17.7275 21.7394 17.5583 21.3835 17.5583C21.0277 17.5583 19.8406 17.6094 19.8406 19.2704V23.0694C19.8406 24.0523 19.0429 24.85 18.06 24.85H17.9419C16.959 24.85 16.1613 24.0523 16.1613 23.0694V16.4821C16.1613 15.4656 16.9852 14.6417 18.0017 14.6417C19.0181 14.6417 19.8421 15.4656 19.8421 16.4821C19.8421 16.4821 20.2533 14.6417 23.0475 14.6417C24.8252 14.6417 26.25 16.0665 26.25 19.2704V23.0694C26.25 24.0523 25.4523 24.85 24.4694 24.85Z" fill="white"/>
</svg>
